<?xml version="1.0" standalone="no"?>
<!DOCTYPE svg PUBLIC "-//W3C//DTD SVG 20010904//EN"
    "http://www.w3.org/TR/2001/REC-SVG-20010904/DTD/svg10.dtd">
<svg version="1.0" xmlns="http://www.w3.org/2000/svg"
     width="271.000000pt" height="275.000000pt" viewBox="0 0 271.000000 275.000000"
     preserveAspectRatio="xMidYMid meet">

    <g transform="translate(0.000000,275.000000) scale(0.100000,-0.100000)"
       fill="#000000" stroke="none">
        <path fill="#cfdcac" d="M1151 2523 c18 -32 39 -66 47 -76 15 -16 14 -17 -2 -11 -17 7 -17 5
-1 -27 10 -19 27 -44 38 -57 19 -20 19 -22 3 -16 -16 6 -17 4 -11 -17 4 -13
15 -38 25 -56 30 -52 11 -45 -47 18 -39 42 -77 70 -130 96 -65 32 -86 37 -164
41 -52 3 -89 1 -89 -5 0 -16 130 -93 158 -93 23 0 24 -1 9 -13 -16 -11 -13
-16 30 -48 26 -20 66 -41 88 -47 37 -9 38 -10 10 -11 l-30 -2 45 -41 45 -41
-40 21 c-109 55 -242 67 -343 32 -58 -20 -152 -78 -152 -93 0 -11 149 -4 175
8 18 8 19 7 6 -8 -12 -15 -11 -17 8 -17 12 0 36 7 54 16 l32 17 -18 -21 c-19
-20 -18 -21 29 -28 30 -4 60 -2 81 6 34 12 62 6 29 -6 -25 -10 -19 -24 12 -24
15 0 38 -3 52 -7 19 -5 11 -9 -40 -20 -147 -29 -267 -117 -325 -236 -19 -40
-38 -85 -41 -102 l-7 -30 34 26 c19 14 48 36 65 48 18 13 37 35 44 50 l13 26
7 -25 c7 -25 7 -25 23 10 9 20 16 27 17 17 0 -16 2 -16 38 2 20 10 46 34 57
53 18 30 20 31 23 11 2 -13 5 -23 6 -23 2 0 47 21 101 46 53 25 99 43 101 41
2 -2 -26 -42 -62 -88 -160 -203 -322 -485 -404 -703 l-38 -101 -317 -3 c-294
-2 -316 -4 -313 -20 4 -20 23 -21 395 -21 l222 -1 -15 -47 c-9 -27 -19 -57
-24 -68 -8 -21 -25 -103 -44 -215 -10 -58 -14 -65 -36 -68 -102 -10 -260 -37
-260 -43 0 -4 34 -44 76 -88 279 -297 695 -453 1093 -412 171 17 377 70 354
91 -18 17 -250 91 -341 109 -123 25 -328 51 -398 51 -30 0 -54 4 -54 10 0 5
52 11 123 12 l122 3 -75 24 c-106 33 -146 55 -209 119 -33 32 -79 65 -111 79
-30 13 -63 28 -73 34 -13 7 -17 5 -17 -6 0 -19 -20 -19 -45 -1 -18 13 -18 20
-7 131 9 93 9 122 -1 133 -10 13 -8 14 15 9 14 -4 33 -10 42 -13 11 -4 16 -1
16 10 0 9 -3 16 -7 16 -5 0 -16 7 -26 14 -16 13 -16 18 -1 97 9 46 17 90 17
97 0 15 3 15 29 1 28 -15 37 -1 11 19 l-22 17 29 88 c17 49 28 93 24 98 -3 5
6 4 20 -3 32 -14 47 -3 21 15 -17 13 -16 18 21 101 36 80 41 86 64 81 23 -5
24 -4 7 9 -17 13 -16 17 21 77 27 45 44 63 56 61 14 -3 16 1 11 17 -8 27 70
142 91 134 10 -4 12 0 8 11 -4 9 7 32 27 57 27 34 34 38 41 25 5 -9 17 -16 27
-16 21 0 31 -35 31 -106 0 -45 7 -53 28 -32 16 16 15 8 -3 -36 -9 -20 -12 -42
-8 -48 3 -7 6 -29 4 -50 -2 -39 12 -51 23 -22 4 9 9 14 12 11 3 -3 -1 -16 -10
-29 -11 -15 -16 -44 -16 -87 0 -64 0 -64 20 -46 11 10 36 50 55 88 31 63 35
78 35 151 0 81 -14 147 -44 204 -23 45 -20 47 13 10 16 -18 45 -50 65 -71 36
-38 36 -38 36 -12 0 36 16 23 24 -19 4 -19 20 -49 36 -67 16 -19 30 -37 30
-41 0 -15 19 -8 23 10 3 11 5 8 6 -9 1 -25 72 -131 93 -138 8 -3 9 18 5 69
-11 134 -97 268 -216 338 -55 32 -44 37 42 18 60 -12 85 -8 57 9 -5 3 -10 11
-10 17 0 6 16 -2 35 -16 19 -15 58 -33 85 -40 49 -13 50 -13 44 8 -6 21 -6 21
18 -1 23 -22 137 -67 146 -59 7 8 -34 59 -81 103 -88 81 -211 122 -329 109
-71 -7 -71 0 -2 17 28 8 48 18 46 25 -1 7 10 12 30 12 18 0 40 5 48 10 13 9
13 11 0 20 -11 7 0 10 38 10 28 0 52 5 52 10 0 6 10 10 23 10 36 0 98 20 92
30 -3 5 -40 16 -83 26 -128 28 -241 -1 -358 -94 l-49 -39 -3 81 c-4 140 -41
234 -124 313 -46 44 -115 93 -130 93 -5 0 5 -26 23 -57z"/>
        <path fill="#cfdcac" d="M2071 2296 c-7 -8 -21 -12 -34 -9 l-22 5 22 -16 c21 -15 23 -15 47 9
15 15 20 25 12 25 -8 0 -19 -6 -25 -14z"/>
        <path fill="#cfdcac" d="M2081 2011 c-7 -5 -23 -7 -35 -4 -21 4 -20 4 14 -18 3 -2 16 4 30 14
24 17 17 24 -9 8z"/>
        <path  fill="#cfdcac" d="M2330 1980 c-8 -5 -26 -10 -40 -10 l-25 -1 24 -10 c20 -8 29 -6 45
11 22 21 20 26 -4 10z"/>
        <path fill="#cfdcac" d="M2255 1780 c-4 -6 -14 -10 -23 -9 -36 3 -46 -3 -17 -12 24 -7 34 -5
50 11 11 11 14 20 8 20 -7 0 -15 -5 -18 -10z"/>
        <path fill="#cfdcac" d="M857 996 c-3 -8 -3 -17 0 -20 4 -3 83 -5 177 -4 146 2 158 3 81 8
-49 3 77 6 280 6 204 1 343 -2 310 -6 -33 -4 166 -7 441 -8 449 -2 502 0 508
14 3 9 6 18 6 20 0 2 -405 4 -899 4 -762 0 -900 -2 -904 -14z"/>
        <path  fill="#cfdcac" d="M1086 469 c-27 -16 -3 -29 54 -29 l45 1 -24 19 c-26 22 -47 25 -75 9z"/>
        <path  fill="#cfdcac" d="M1327 353 c-16 -15 -5 -23 31 -23 35 1 36 2 18 15 -21 16 -39 19 -49
8z"/>
    </g>
</svg>
